REM DIRINDEX 1\2,1\3,1\4,1\5
REM DIRNAME cjc044,folder01,folder02,folder03,folder04
TITLE ""
FILE "1800_061.mp3" MP3
  TRACK 01 AUDIO
    TITLE "2:cjc044_1497"
    INDEX 01 00:00:00
  TRACK 02 AUDIO
    TITLE "0:"
    INDEX 01 00:00:74
  TRACK 03 AUDIO
    TITLE "3:cjc044_1498"
    INDEX 01 00:01:58
  TRACK 04 AUDIO
    TITLE "0:"
    INDEX 01 00:03:45
  TRACK 05 AUDIO
    TITLE "4:cjc044_1499"
    INDEX 01 00:04:25
  TRACK 06 AUDIO
    TITLE "0:"
    INDEX 01 00:05:34
  TRACK 07 AUDIO
    TITLE "5:cjc044_1500"
    INDEX 01 00:06:16
  TRACK 08 AUDIO
    TITLE "0:"
    INDEX 01 00:10:04
  TRACK 09 AUDIO
    TITLE "2:cjc044_1501"
    INDEX 01 00:11:64
  TRACK 10 AUDIO
    TITLE "0:"
    INDEX 01 00:13:04
  TRACK 11 AUDIO
    TITLE "3:cjc044_1502"
    INDEX 01 00:13:57
  TRACK 12 AUDIO
    TITLE "0:"
    INDEX 01 00:15:07
  TRACK 13 AUDIO
    TITLE "4:cjc044_1503"
    INDEX 01 00:15:66
  TRACK 14 AUDIO
    TITLE "0:"
    INDEX 01 00:17:04
  TRACK 15 AUDIO
    TITLE "5:cjc044_1504"
    INDEX 01 00:17:59
  TRACK 16 AUDIO
    TITLE "0:"
    INDEX 01 00:21:33
  TRACK 17 AUDIO
    TITLE "2:cjc044_1505"
    INDEX 01 00:23:14
  TRACK 18 AUDIO
    TITLE "0:"
    INDEX 01 00:24:16
  TRACK 19 AUDIO
    TITLE "3:cjc044_1506"
    INDEX 01 00:24:72
  TRACK 20 AUDIO
    TITLE "0:"
    INDEX 01 00:25:50
  TRACK 21 AUDIO
    TITLE "4:cjc044_1507"
    INDEX 01 00:26:42
  TRACK 22 AUDIO
    TITLE "0:"
    INDEX 01 00:27:41
  TRACK 23 AUDIO
    TITLE "5:cjc044_1508"
    INDEX 01 00:28:17
  TRACK 24 AUDIO
    TITLE "0:"
    INDEX 01 00:31:67
  TRACK 25 AUDIO
    TITLE "2:cjc044_1509"
    INDEX 01 00:33:54
  TRACK 26 AUDIO
    TITLE "0:"
    INDEX 01 00:34:49
  TRACK 27 AUDIO
    TITLE "3:cjc044_1510"
    INDEX 01 00:35:29
  TRACK 28 AUDIO
    TITLE "0:"
    INDEX 01 00:36:50
  TRACK 29 AUDIO
    TITLE "4:cjc044_1511"
    INDEX 01 00:37:30
  TRACK 30 AUDIO
    TITLE "0:"
    INDEX 01 00:38:24
  TRACK 31 AUDIO
    TITLE "5:cjc044_1512"
    INDEX 01 00:39:03
  TRACK 32 AUDIO
    TITLE "0:"
    INDEX 01 00:42:06
  TRACK 33 AUDIO
    TITLE "2:cjc044_1513"
    INDEX 01 00:43:66
  TRACK 34 AUDIO
    TITLE "0:"
    INDEX 01 00:44:67
  TRACK 35 AUDIO
    TITLE "3:cjc044_1514"
    INDEX 01 00:45:53
  TRACK 36 AUDIO
    TITLE "0:"
    INDEX 01 00:46:72
  TRACK 37 AUDIO
    TITLE "4:cjc044_1515"
    INDEX 01 00:47:56
  TRACK 38 AUDIO
    TITLE "0:"
    INDEX 01 00:48:59
  TRACK 39 AUDIO
    TITLE "5:cjc044_1516"
    INDEX 01 00:49:41
  TRACK 40 AUDIO
    TITLE "0:"
    INDEX 01 00:53:19
  TRACK 41 AUDIO
    TITLE "2:cjc044_1517"
    INDEX 01 00:55:10
  TRACK 42 AUDIO
    TITLE "0:"
    INDEX 01 00:56:16
  TRACK 43 AUDIO
    TITLE "3:cjc044_1518"
    INDEX 01 00:57:01
  TRACK 44 AUDIO
    TITLE "0:"
    INDEX 01 00:57:72
  TRACK 45 AUDIO
    TITLE "4:cjc044_1519"
    INDEX 01 00:58:58
  TRACK 46 AUDIO
    TITLE "0:"
    INDEX 01 00:59:67
  TRACK 47 AUDIO
    TITLE "5:cjc044_1520"
    INDEX 01 01:00:47
  TRACK 48 AUDIO
    TITLE "0:"
    INDEX 01 01:04:47
  TRACK 49 AUDIO
    TITLE "2:cjc044_1521"
    INDEX 01 01:06:36
  TRACK 50 AUDIO
    TITLE "0:"
    INDEX 01 01:07:31
  TRACK 51 AUDIO
    TITLE "3:cjc044_1522"
    INDEX 01 01:08:15
  TRACK 52 AUDIO
    TITLE "0:"
    INDEX 01 01:09:20
  TRACK 53 AUDIO
    TITLE "4:cjc044_1523"
    INDEX 01 01:10:06
  TRACK 54 AUDIO
    TITLE "0:"
    INDEX 01 01:11:02
  TRACK 55 AUDIO
    TITLE "5:cjc044_1524"
    INDEX 01 01:11:60
  TRACK 56 AUDIO
    TITLE "0:"
    INDEX 01 01:15:60
  TRACK 57 AUDIO
    TITLE "2:cjc044_1525"
    INDEX 01 01:17:45
  TRACK 58 AUDIO
    TITLE "0:"
    INDEX 01 01:18:39
  TRACK 59 AUDIO
    TITLE "3:cjc044_1526"
    INDEX 01 01:19:30
  TRACK 60 AUDIO
    TITLE "0:"
    INDEX 01 01:20:40
  TRACK 61 AUDIO
    TITLE "4:cjc044_1527"
    INDEX 01 01:21:23
  TRACK 62 AUDIO
    TITLE "0:"
    INDEX 01 01:22:19
  TRACK 63 AUDIO
    TITLE "5:cjc044_1528"
    INDEX 01 01:22:74
  TRACK 64 AUDIO
    TITLE "0:"
    INDEX 01 01:26:11
